{"title":"Element 2016 Movies HDRip XviD ESubs AAC New Source +Sample ☻rDX","uid":15022002,"size":743222593,"categoryP":"video","categoryS":"movies","magnet":"?xt=urn:btih:e06a31cce2db242f7ff12670946b0538c19cc1db&amp;dn=Element+2016+Movies+HDRip+XviD+ESubs+AAC+New+Source+%2BSample+%E2%98%BBrDX&amp;tr=udp%3A%2F%2Ftracker.leechers-paradise.org%3A6969&amp;tr=udp%3A%2F%2Fzer0day.ch%3A1337&amp;tr=udp%3A%2F%2Fopen.demonii.com%3A1337&amp;tr=udp%3A%2F%2Ftracker.coppersurfer.tk%3A6969&amp;tr=udp%3A%2F%2Fexodus.desync.com%3A6969","seeders":0,"leechers":2,"uploader":"basicssom","files":3,"time":1466480814,"description":"----------------------------------------------------------------\r\nElement 2016 English Movies HDRip XviD ESubs AAC New Source with Sample ☻rDX☻\r\n\r\nSCREEN SHOTS &amp; POSTER:\r\n  \nhttp://mobileshosting.com/2016/6/ebay/index.htm  \nhttp://mobileshosting.com/2016/6/ebay/1.html  \nhttp://mobileshosting.com/2016/6/ebay/2.html  \nhttp://mobileshosting.com/2016/6/ebay/3.html  \nhttp://mobileshosting.com/2016/6/ebay/4.html  \nhttp://mobileshosting.com/2016/6/ebay/5.html  \nhttp://mobileshosting.com/2016/6/ebay/6.html  \nhttp://mobileshosting.com/2016/6/ebay/7.html  \nhttp://mobileshosting.com/2016/6/ebay/8.html  \nhttp://mobileshosting.com/2016/6/ebay/9.html  \nhttp://mobileshosting.com/2016/6/ebay/10.html\r\n\r\nFormat                                   : Matroska\r\nFormat version                           : Version 4 / Version 2\r\nFile size                                : 694 MiB\r\nDuration                                 : 1h 28mn\r\nOverall bit rate                         : 1 092 Kbps\r\nMovie name                               : Element 2016 English Movies HDRip XviD ESubs AAC New Source ☻rDX☻\r\n\r\nVideo\r\nID                                       : 1\r\nFormat                                   : MPEG-4 Visual\r\nFormat profile                           : Advanced   \r\nFormat settings, BVOP                    : Yes\r\nFormat settings, QPel                    : No\r\nFormat settings, GMC                     : No warppoints\r\nFormat settings, Matrix                  : Default (H.263)\r\nCodec ID                                 : V_MS/VFW/FOURCC / XVID\r\nCodec ID/Hint                            : XviD\r\nDuration                                 : 1h 28mn\r\nBit rate                                 : 942 Kbps\r\nWidth                                    : 640 pixels\r\nHeight                                   : 272 pixels\r\nDisplay aspect ratio                     : 2.35:1\r\nFrame rate mode                          : Constant\r\nFrame rate                               : 23.976 fps\r\nColor space                              : YUV\r\nChroma subsampling                       : 4:2:0\r\nBit depth                                : 8 bits\r\nScan type                                : Progressive\r\nCompression mode                         : Lossy\r\nBits/(Pixel*Frame)                       : 0.226\r\nStream size                              : 599 MiB (86%)\r\nTitle                                    : ☻rDX☻\r\nWriting library                          : XviD 65\r\nDefault                                  : Yes\r\nForced                                   : No\r\n\r\nAudio\r\nID                                       : 2\r\nFormat                                   : MPEG Audio\r\nFormat version                           : Version 1\r\nFormat profile                           : Layer 3\r\nMode                                     : Joint stereo\r\nMode extension                           : MS Stereo\r\nCodec ID                                 : A_MPEG/L3\r\nCodec ID/Hint                            : MP3\r\nDuration                                 : 1h 28mn\r\nBit rate mode                            : Constant\r\nBit rate                                 : 128 Kbps\r\nChannel(s)                               : 2 channels\r\nSampling rate                            : 48.0 KHz\r\nCompression mode                         : Lossy\r\nStream size                              : 81.3 MiB (12%)\r\nTitle                                    : ☻rDX☻\r\nWriting library                          : LAME3.99r\r\nEncoding settings                        : -m j -V 4 -q 3 -lowpass 17 -b 128\r\nDefault                                  : Yes\r\nForced                                   : No\r\n\r\nIMDB \nhttp://www.imdb.com/title/tt3645178/","torrent":{"xt":"urn:btih:e06a31cce2db242f7ff12670946b0538c19cc1db","amp;dn":"Element+2016+Movies+HDRip+XviD+ESubs+AAC+New+Source+%2BSample+%E2%98%BBrDX","amp;tr":["udp%3A%2F%2Ftracker.leechers-paradise.org%3A6969","udp%3A%2F%2Fzer0day.ch%3A1337","udp%3A%2F%2Fopen.demonii.com%3A1337","udp%3A%2F%2Ftracker.coppersurfer.tk%3A6969","udp%3A%2F%2Fexodus.desync.com%3A6969"],"infoHash":"e06a31cce2db242f7ff12670946b0538c19cc1db","infoHashBuffer":{"type":"Buffer","data":[224,106,49,204,226,219,36,47,127,241,38,112,148,107,5,56,193,156,193,219]},"announce":[],"urlList":[]}}